<?xml version="1.0" encoding="utf-8"?>
<!-- Generator: Adobe Illustrator 16.0.0, SVG Export Plug-In . SVG Version: 6.00 Build 0)  -->
<!DOCTYPE svg PUBLIC "-//W3C//DTD SVG 1.1//EN" "http://www.w3.org/Graphics/SVG/1.1/DTD/svg11.dtd">
<svg version="1.1" id="Layer_1" xmlns="http://www.w3.org/2000/svg" xmlns:xlink="http://www.w3.org/1999/xlink" x="0px" y="0px"
	 width="300px" height="300px" viewBox="0 0 300 300" enable-background="new 0 0 300 300" xml:space="preserve">
<g>
	<path fill="#44B549" d="M284.314,273.817l-15.271,15.271c-5.019,5.072-13.221,5.072-18.293,0l-53.801-53.801
		c-2.429-2.429-3.777-5.72-3.777-9.174v-8.796c-19.049,14.894-43.009,23.744-69.072,23.744
		c-62.003,0-112.243-50.239-112.243-112.243c0-62.003,50.239-112.242,112.243-112.242c62.003,0,112.242,50.239,112.242,112.242
		c0,26.064-8.85,50.023-23.743,69.072h8.795c3.454,0,6.746,1.35,9.174,3.777l53.801,53.801
		C289.387,260.542,289.387,268.745,284.314,273.817z M193.172,128.819c0-38.205-30.921-69.072-69.072-69.072
		c-38.206,0-69.072,30.921-69.072,69.072c0,38.206,30.92,69.072,69.072,69.072C162.305,197.892,193.172,166.972,193.172,128.819z"/>
</g>
</svg>
