<?xml version="1.0" encoding="utf-8"?>
<!-- Generator: Adobe Illustrator 16.0.0, SVG Export Plug-In . SVG Version: 6.00 Build 0)  -->
<!DOCTYPE svg PUBLIC "-//W3C//DTD SVG 1.1//EN" "http://www.w3.org/Graphics/SVG/1.1/DTD/svg11.dtd">
<svg version="1.1" id="Layer_1" xmlns="http://www.w3.org/2000/svg" xmlns:xlink="http://www.w3.org/1999/xlink" x="0px" y="0px"
	 width="300px" height="300px" viewBox="0 0 300 300" enable-background="new 0 0 300 300" xml:space="preserve">
<g>
	<path fill="#44B549" d="M229.779,170.468l-89.709,89.71c-8.239,8.238-21.597,8.238-29.834,0l-93.122-93.122
		c-3.41-3.41-6.179-10.094-6.179-14.917v-89.71c0-11.651,9.445-21.096,21.096-21.096h89.709c4.823,0,11.506,2.769,14.917,6.179
		l93.122,93.122C238.018,148.872,238.018,162.229,229.779,170.468z M81.255,90.557c0-11.651-9.445-21.096-21.096-21.096
		c-11.651,0-21.096,9.445-21.096,21.096c0,11.651,9.445,21.096,21.096,21.096C71.81,111.653,81.255,102.208,81.255,90.557z
		 M196.326,260.178c-8.238,8.238-21.597,8.238-29.834,0l-0.158-0.158l76.498-76.499c7.471-7.471,11.585-17.404,11.585-27.97
		s-4.114-20.499-11.585-27.97l-86.248-86.248h21.412c4.824,0,11.507,2.769,14.917,6.179l93.122,93.122
		c8.238,8.238,8.238,21.596,0,29.834L196.326,260.178z"/>
</g>
</svg>
