<?xml version="1.0" encoding="utf-8"?>
<!-- Generator: Adobe Illustrator 16.0.0, SVG Export Plug-In . SVG Version: 6.00 Build 0)  -->
<!DOCTYPE svg PUBLIC "-//W3C//DTD SVG 1.1//EN" "http://www.w3.org/Graphics/SVG/1.1/DTD/svg11.dtd">
<svg version="1.1" id="Layer_1" xmlns="http://www.w3.org/2000/svg" xmlns:xlink="http://www.w3.org/1999/xlink" x="0px" y="0px"
	 width="300px" height="300px" viewBox="0 0 300 300" enable-background="new 0 0 300 300" xml:space="preserve">
<g>
	<path fill="#44B549" d="M114.526,196.975c4.695,6.422-4.263-3.562,25.579,28.978l-7.285,18.239
		c-1.781,4.372-4.371,8.311-7.663,11.603l-32.054,32.054c-6.745,6.745-17.646,6.745-24.391,0c-6.746-6.745-6.746-17.699,0-24.445
		l26.981-27.035c3.345-3.292,5.936-7.23,7.662-11.602L114.526,196.975z M234.593,172.044c-4.263,8.526-14.516,11.979-22.934,7.717
		l-12.573-6.368c-8.095-4.101-14.246-11.278-17.106-19.966l-2.968-8.904l-9.282,37.072l24.554,26.82
		c3.885,4.209,6.637,9.39,8.04,14.947l11.979,48.026c2.32,9.228-3.346,18.617-12.572,20.938c-9.229,2.32-18.617-3.346-20.938-12.573
		l-9.875-39.554c-1.403-5.559-4.155-10.686-8.04-14.948l-32.324-35.292c-7.824-8.579-10.846-20.506-8.041-31.729l8.203-32.756
		l-14.462,5.828c-3.886,1.565-7.015,4.533-8.904,8.311l-3.616,7.338c-4.263,8.527-14.516,11.98-22.934,7.717
		c-8.472-4.263-11.872-14.624-7.663-23.15l3.616-7.338c5.612-11.333,15.164-20.236,26.82-24.931
		c20.182-8.148,30.92-13.652,50.346-13.599c25.094,0.054,47.219,16.89,55.15,40.958l5.234,15.865l12.573,6.367
		C235.349,153.103,238.748,163.572,234.593,172.044z M149.979,42.479c0-14.3,11.603-25.902,25.902-25.902
		s25.901,11.602,25.901,25.902c0,14.3-11.602,25.902-25.901,25.902S149.979,56.779,149.979,42.479z"/>
</g>
</svg>
