<?xml version="1.0" encoding="utf-8"?>
<!-- Generator: Adobe Illustrator 16.0.0, SVG Export Plug-In . SVG Version: 6.00 Build 0)  -->
<!DOCTYPE svg PUBLIC "-//W3C//DTD SVG 1.1//EN" "http://www.w3.org/Graphics/SVG/1.1/DTD/svg11.dtd">
<svg version="1.1" id="Layer_1" xmlns="http://www.w3.org/2000/svg" xmlns:xlink="http://www.w3.org/1999/xlink" x="0px" y="0px"
	 width="300px" height="300px" viewBox="0 0 300 300" enable-background="new 0 0 300 300" xml:space="preserve">
<g>
	<path fill="#44B549" d="M63.661,51.113v34.536c0,4.766-3.868,8.634-8.634,8.634H20.491c-4.766,0-8.634-3.868-8.634-8.634V51.113
		c0-4.766,3.868-8.634,8.634-8.634h34.536C59.793,42.479,63.661,46.347,63.661,51.113z M63.661,137.454v34.537
		c0,4.766-3.868,8.634-8.634,8.634H20.491c-4.766,0-8.634-3.868-8.634-8.634v-34.537c0-4.766,3.868-8.634,8.634-8.634h34.536
		C59.793,128.819,63.661,132.688,63.661,137.454z M63.661,223.794v34.536c0,4.766-3.868,8.634-8.634,8.634H20.491
		c-4.766,0-8.634-3.868-8.634-8.634v-34.536c0-4.766,3.868-8.634,8.634-8.634h34.536C59.793,215.16,63.661,219.028,63.661,223.794z
		 M288.146,59.747v17.269c0,4.766-3.868,8.634-8.635,8.634H106.831c-4.766,0-8.634-3.868-8.634-8.634V59.747
		c0-4.766,3.868-8.634,8.634-8.634h172.681C284.278,51.113,288.146,54.981,288.146,59.747z M288.146,146.088v17.268
		c0,4.767-3.868,8.635-8.635,8.635H106.831c-4.766,0-8.634-3.868-8.634-8.635v-17.268c0-4.766,3.868-8.634,8.634-8.634h172.681
		C284.278,137.454,288.146,141.322,288.146,146.088z M288.146,232.428v17.269c0,4.766-3.868,8.634-8.635,8.634H106.831
		c-4.766,0-8.634-3.868-8.634-8.634v-17.269c0-4.766,3.868-8.634,8.634-8.634h172.681
		C284.278,223.794,288.146,227.662,288.146,232.428z"/>
</g>
</svg>
