<?xml version="1.0" encoding="utf-8"?>
<!-- Generator: Adobe Illustrator 16.0.0, SVG Export Plug-In . SVG Version: 6.00 Build 0)  -->
<!DOCTYPE svg PUBLIC "-//W3C//DTD SVG 1.1//EN" "http://www.w3.org/Graphics/SVG/1.1/DTD/svg11.dtd">
<svg version="1.1" id="Layer_1" xmlns="http://www.w3.org/2000/svg" xmlns:xlink="http://www.w3.org/1999/xlink" x="0px" y="0px"
	 width="66px" height="64.667px" viewBox="0 0 66 64.667" enable-background="new 0 0 66 64.667" xml:space="preserve">
<g>
	<path fill="#E34343" d="M32.667,62.229c-16.05,0-29.063-13.008-29.063-29.063c0-16.045,13.013-29.063,29.063-29.063
		s29.063,13.018,29.063,29.063C61.729,49.221,48.717,62.229,32.667,62.229z M27.276,44.417c0,2.977,2.414,5.391,5.391,5.391
		c2.978,0,5.391-2.414,5.391-5.391s-2.413-5.391-5.391-5.391C29.69,39.026,27.276,41.44,27.276,44.417z M28.418,35.587
		c0.041,0.746,0.657,1.33,1.404,1.33h5.689c0.747,0,1.363-0.584,1.404-1.33l0.869-15.938c0.044-0.806-0.598-1.483-1.404-1.483
		h-7.428c-0.807,0-1.448,0.677-1.404,1.483L28.418,35.587z"/>
</g>
</svg>
