<?xml version="1.0" encoding="utf-8"?>
<!-- Generator: Adobe Illustrator 16.0.0, SVG Export Plug-In . SVG Version: 6.00 Build 0)  -->
<!DOCTYPE svg PUBLIC "-//W3C//DTD SVG 1.1//EN" "http://www.w3.org/Graphics/SVG/1.1/DTD/svg11.dtd">
<svg version="1.1" id="Layer_1" xmlns="http://www.w3.org/2000/svg" xmlns:xlink="http://www.w3.org/1999/xlink" x="0px" y="0px"
	 width="520px" height="131px" viewBox="0 0 520 131" enable-background="new 0 0 520 131" xml:space="preserve">
<g>
	<path fill="#12232D" d="M263.586,48.82h-16.337V37.33h46.499v11.49H277.23v49.013h-13.645V48.82z"/>
	<path fill="#12232D" d="M295.813,68.39c0-6.464-0.09-10.683-0.358-14.453h11.67l0.538,8.169h0.359
		c2.244-6.463,7.541-9.156,11.85-9.156c1.256,0,1.885,0.09,2.872,0.27v12.837c-1.167-0.18-2.244-0.359-3.771-0.359
		c-5.026,0-8.438,2.604-9.336,6.912c-0.179,0.897-0.269,1.885-0.269,3.052v22.173h-13.646L295.813,68.39z"/>
	<path fill="#12232D" d="M370.947,83.739c0,5.745,0.18,10.413,0.359,14.094h-11.85l-0.627-6.194h-0.27
		c-1.706,2.693-5.836,7.182-13.734,7.182c-8.977,0-15.44-5.565-15.44-19.12V53.937h13.645v23.609c0,6.373,2.064,10.233,6.912,10.233
		c3.771,0,6.015-2.604,6.822-4.758c0.359-0.808,0.538-1.796,0.538-2.963V53.937h13.645V83.739z"/>
	<path fill="#12232D" d="M414.844,96.756c-2.424,1.167-7.002,2.064-12.209,2.064c-14.183,0-23.25-8.707-23.25-22.531
		c0-12.837,8.798-23.34,25.136-23.34c3.59,0,7.54,0.629,10.412,1.706l-2.154,10.144c-1.615-0.719-4.039-1.347-7.63-1.347
		c-7.182,0-11.85,5.116-11.76,12.298c0,8.079,5.387,12.388,12.029,12.388c3.231,0,5.745-0.538,7.81-1.436L414.844,96.756z"/>
	<path fill="#12232D" d="M436.026,72.519h0.18c0.987-1.885,2.064-3.681,3.142-5.296l8.888-13.286h16.427l-15.709,17.774
		l17.953,26.122H450.12L439.438,79.79l-3.411,4.398v13.645h-13.645V34.098h13.645V72.519z"/>
	<path fill="#12232D" d="M489.978,98.82c-12.837,0-22.712-8.438-22.712-22.621c0-14.184,9.336-23.25,23.52-23.25
		c13.375,0,22.352,9.246,22.352,22.531c0,15.979-11.4,23.34-23.069,23.34H489.978z M490.246,89.036
		c5.387,0,8.708-5.297,8.708-13.196c0-6.463-2.514-13.105-8.708-13.105c-6.463,0-8.977,6.643-8.977,13.195
		c0,7.451,3.143,13.106,8.887,13.106H490.246z"/>
</g>
<g>
	<path fill-rule="evenodd" clip-rule="evenodd" fill="#12232D" d="M219.627,34.888c-6.26,2.427-12.169,4.697-18.066,7.007
		c-11.747,4.6-23.491,9.223-35.241,13.833c-1.206,0.475-2.395,1.098-3.626,1.364c-1.923,0.417-2.968,1.387-2.999,4.317
		c-0.035,3.739-0.217,3.848,2.565,3.207c14.784-3.419,29.661-6.268,44.146-11.685C212.291,50.728,216.818,44.647,219.627,34.888z"/>
	<path fill-rule="evenodd" clip-rule="evenodd" fill="#12232D" d="M210.934,55.495c-5.442,1.367-10.255,2.586-15.067,3.779
		c-11.34,2.812-22.677,5.6-34.012,8.42c-2.334,0.58-3.623,3.923-2.754,6.902c0.222,0.771,0.641,0.704,1.064,0.711
		c11.854,0.188,23.713,0.396,35.528-1.446C203.913,72.583,207.463,64.733,210.934,55.495z"/>
	<path fill-rule="evenodd" clip-rule="evenodd" fill="#12232D" d="M200.101,77.559c-2.295,0-4.578-0.036-6.864,0.006
		c-10.739,0.195-21.482,0.416-32.224,0.619c-1.184,0.021-2.415-0.338-2.378,2.221c0.025,2.079-0.135,3.435,2.085,3.933
		c7.565,1.694,15.119,3.48,22.78,4.228c1.934,0.187,3.88,0.288,5.813,0.21C194.18,88.583,198.573,83.97,200.101,77.559z"/>
	<path fill-rule="evenodd" clip-rule="evenodd" fill="#12232D" d="M183.54,101.163c-8.683-2.45-16.73-4.724-24.782-6.981
		c-0.386-0.107-0.777-0.419-1.136,0.327c-1.037,2.151-0.135,6.876,1.649,8.006c3.5,2.223,7.201,3.685,11.009,4.621
		C175.29,108.364,179.093,104.789,183.54,101.163z"/>
	<path fill-rule="evenodd" clip-rule="evenodd" fill="#12232D" d="M191.773,93.104c-11.35-2.18-22.085-4.238-32.814-6.311
		c-0.631-0.12-1.304-0.287-1.23,0.933c0.083,1.359-0.808,3.124,1.126,3.744c4.973,1.597,9.901,3.433,14.861,5.104
		c1.654,0.556,3.361,0.834,5.024,1.347C183.526,99.4,187.395,96.602,191.773,93.104z"/>
	<g>
		<path fill-rule="evenodd" clip-rule="evenodd" fill="#12232D" d="M22.375,33.235c6.257,2.426,12.164,4.695,18.064,7.005
			c11.749,4.601,23.493,9.225,35.238,13.836c1.207,0.473,2.397,1.097,3.629,1.362c1.923,0.419,2.966,1.387,2.997,4.316
			c0.04,3.741,0.221,3.85-2.563,3.207c-14.788-3.419-29.661-6.267-44.146-11.685C29.706,49.075,25.182,42.993,22.375,33.235z"/>
		<path fill-rule="evenodd" clip-rule="evenodd" fill="#12232D" d="M31.065,53.84c5.442,1.367,10.254,2.588,15.067,3.782
			c11.337,2.81,22.679,5.601,34.013,8.417c2.333,0.581,3.619,3.925,2.752,6.904c-0.221,0.771-0.642,0.704-1.064,0.71
			c-11.856,0.191-23.713,0.396-35.527-1.443C38.087,70.929,34.536,63.08,31.065,53.84z"/>
		<path fill-rule="evenodd" clip-rule="evenodd" fill="#12232D" d="M41.898,75.904c2.295,0,4.579-0.035,6.864,0.006
			c10.742,0.196,21.484,0.416,32.226,0.619c1.181,0.022,2.411-0.337,2.376,2.224c-0.028,2.079,0.136,3.433-2.084,3.932
			c-7.567,1.695-15.12,3.482-22.78,4.227c-1.932,0.188-3.878,0.29-5.812,0.213C47.821,86.929,43.429,82.316,41.898,75.904z"/>
		<path fill-rule="evenodd" clip-rule="evenodd" fill="#12232D" d="M58.459,99.511c8.682-2.452,16.73-4.724,24.78-6.981
			c0.387-0.109,0.781-0.423,1.137,0.325c1.039,2.151,0.133,6.876-1.649,8.008c-3.502,2.222-7.201,3.683-11.009,4.618
			C66.706,106.711,62.906,103.134,58.459,99.511z"/>
		<path fill-rule="evenodd" clip-rule="evenodd" fill="#12232D" d="M50.228,91.449c11.348-2.179,22.081-4.239,32.812-6.31
			c0.631-0.121,1.304-0.286,1.231,0.933c-0.083,1.359,0.807,3.124-1.126,3.744c-4.974,1.597-9.903,3.433-14.861,5.103
			c-1.654,0.557-3.361,0.834-5.023,1.349C58.473,97.747,54.607,94.948,50.228,91.449z"/>
		<path fill-rule="evenodd" clip-rule="evenodd" fill="#12232D" d="M94.809,108.729c0.185-2.862-0.652-5.852,1.063-8.539
			c0.141-0.219-0.026-0.635-0.046-0.928c-1.793-0.5-1.989-0.671-1.949-2.45c0.068-3.074,0.439-6.158,0.291-9.218
			c-0.148-2.978,0.82-6.007-0.724-9.002c-0.536-1.043-0.75-1.676-1.944-1.908c-1.574-0.305-2.666-1.848-2.67-3.425
			c-0.003-1.125-0.093-2.259,0.028-3.369c0.101-0.953,0.445-1.878,0.671-2.776c-0.23-0.287-0.803-0.69-0.933-1.206
			c-0.259-1.007,0.333-2.447,1.223-3.486c-1.039-2.885-1.704-5.947-1.518-9.326c0.129-2.353-0.562-3.391-2.125-4.39
			c-13.582-8.659-27.175-17.28-40.917-25.498c-9.37-5.602-18.771-11.012-29.313-11.378c-3.136-0.109-6.264-0.402-9.77,0.295
			c1.605,1.98,2.821,3.553,4.094,5.039c5.2,6.049,10.472,11.849,17.222,14.901c18.011,8.138,36.371,14.69,54.718,21.291
			c1.783,0.642,2.12,1.563,2.08,3.775c-0.17,9.843,0.411,19.625,1.214,29.424c0.84,10.282,4.301,18.28,9.06,25.218
			C94.62,110.763,94.742,109.742,94.809,108.729z"/>
	</g>
	<path fill-rule="evenodd" clip-rule="evenodd" fill="#12232D" d="M226.053,13.485c-10.542,0.366-19.942,5.775-29.316,11.378
		C183,33.08,169.404,41.703,155.822,50.361c-1.562,0.997-2.255,2.036-2.125,4.39c0.16,2.908-0.317,5.575-1.115,8.104
		c1.512,2.054,1.663,2.819,0.245,4.288c0.295,0.98,0.653,1.738,0.727,2.523c0.112,1.228-0.094,2.486,0.059,3.705
		c0.234,1.908-1.182,2.571-2.368,3.364c-0.735,0.488-2.071-0.048-2.168,1.557c-0.056,0.96-0.859,1.893-0.854,2.838
		c0.03,5.153,0.203,10.306,0.341,15.459c0.036,1.409-0.071,2.686-2.135,2.556c0.126,0.675,0.204,1.151,0.308,1.625
		c0.29,1.338,0.778,2.665,0.853,4.014c0.141,2.523-0.053,5.064,0.073,7.588c0.012,0.226,0.023,0.451,0.036,0.675
		c4.625-6.849,7.969-14.743,8.796-24.835c0.801-9.801,1.382-19.583,1.211-29.425c-0.037-2.213,0.297-3.136,2.083-3.777
		c18.349-6.599,36.705-13.152,54.718-21.291c6.75-3.051,12.021-8.853,17.222-14.901c1.275-1.483,2.487-3.057,4.097-5.038
		C232.318,13.082,229.186,13.375,226.053,13.485z"/>
	<g>
		<path fill-rule="evenodd" clip-rule="evenodd" fill="#12232D" d="M107.715,110.969c-0.894-2.026-1.791-4.053-2.689-6.082
			l-0.041,0.03c0.9,2.027,1.801,4.052,2.7,6.079L107.715,110.969z"/>
		<path fill-rule="evenodd" clip-rule="evenodd" fill="#12232D" d="M107.685,110.996c-0.899-2.027-1.8-4.052-2.7-6.079
			c-0.599-1.662-1.074-3.383-1.824-4.976c-0.809-1.708-1.913-3.275-2.812-4.945c-0.849-1.573-1.818-3.132-2.337-4.819
			c-0.586-1.898-0.828-3.92-1.029-5.908c-0.161-1.591-0.034-3.211-0.034-4.875c0.361,0.038,0.55,0.008,0.675,0.082
			c3.746,2.163,7.857,2.01,11.976,1.987c9.165-0.05,18.334,0.108,27.497-0.094c2.727-0.059,5.43-1.036,8.342-1.635
			c-0.263,3.74,0.861,7.873-1.684,11.69c-1.105,1.657-1.504,3.784-2.599,5.452c-2.885,4.395-4.502,9.361-6.675,14.076
			c-0.93,2.022-2.423,3.066-4.59,3.08c-5.795,0.037-11.586-0.003-17.378,0.022C110.223,114.066,108.903,112.632,107.685,110.996z
			 M103.998,91.52c0.505,2.237,1.067,2.836,3.564,2.882c8.079,0.146,16.161,0.182,24.24,0.208c1.448,0.006,2.908-0.197,4.352-0.379
			c1.524-0.191,2.021-1.302,2.342-2.71C126.924,91.52,115.516,91.52,103.998,91.52z M106.107,95.592
			c0.909,1.848,3.192,3.446,5.162,3.453c6.625,0.018,13.253,0.006,19.884,0.007c2.55,0,3.841-1.839,5.432-3.46
			C126.26,95.592,116.154,95.592,106.107,95.592z M132.616,103.853c-7.695,0-15.23,0-22.811,0c0.298,1.987,1.321,2.771,3.142,2.759
			c5.511-0.039,11.023-0.039,16.533,0C131.303,106.624,132.324,105.835,132.616,103.853z M130.147,110.134
			c-6.021,0-11.909,0-17.809,0c0.201,2.277,1.112,3.202,3.133,3.214c3.807,0.02,7.615,0.017,11.427,0
			C128.936,113.338,129.796,112.51,130.147,110.134z"/>
		<path fill-rule="evenodd" clip-rule="evenodd" fill="#12232D" d="M153.554,69.667c-0.073-0.785-0.432-1.543-0.722-2.521
			c1.496-1.555,1.257-2.304-0.509-4.648c-0.721-0.952-1.365-0.961-2.258-1.202c-1.266-0.336-2.421-0.884-2.661-2.562
			c-0.175-1.233-0.943-2.37-1.305-3.59c-0.431-1.45-0.699-2.947-1.06-4.417c-0.693-2.821-2.51-4.701-5.033-5.989
			c-0.348-0.176-0.927-0.31-0.986-0.564c-0.441-1.789-1.884-1.476-3.082-1.476c-10.286-0.003-20.571,0.027-30.859,0.106
			c-0.45,0.002-0.915,0.531-1.34,0.857c-0.381,0.287-0.669,0.735-1.084,0.931c-3.408,1.599-5.088,4.375-5.771,7.982
			c-0.264,1.4-0.083,3.029-1.511,4.101c-0.337,0.251-0.285,1.049-0.367,1.603c-0.252,1.694-1.345,2.81-2.985,2.835
			c-1.798,0.029-3.867,3.057-3.424,4.795c0.13,0.516,0.701,0.919,0.933,1.206c-0.226,0.898-0.57,1.824-0.671,2.776
			c-0.122,1.108-0.032,2.245-0.028,3.369c0.004,1.578,1.096,3.12,2.67,3.425c1.193,0.232,1.408,0.864,1.944,1.907
			c1.545,2.998,0.576,6.025,0.724,9.005c0.148,3.06-0.22,6.142-0.291,9.216c-0.04,1.779,0.156,1.949,1.949,2.45
			c0.021,0.294,0.188,0.709,0.046,0.93c-1.715,2.685-0.878,5.675-1.063,8.539c-0.11,1.675-0.405,3.375-0.218,5.018
			c0.206,1.786-0.135,3.91,1.953,5.046c0.239,0.132,0.337,0.654,0.375,1.01c0.09,0.817,0.109,1.645,0.148,2.329h7.804
			c0.044-0.369,0.073-0.648,0.099-0.93c0.226-2.586,0.552-2.934,3.142-2.95h9.522c0.003,0.003,0.008,0.006,0.012,0.009
			c0.005-0.003,0.008-0.006,0.012-0.009h3.505c0.015,0.013,0.029,0.024,0.046,0.036c0.017-0.012,0.03-0.023,0.045-0.036h13.338
			c2.698,0.058,2.798,0.496,2.888,3.88h7.913c0.033-0.774,0.062-1.488,0.111-2.194c0.023-0.329-0.009-0.828,0.184-0.959
			c2.473-1.683,2.096-4.14,1.974-6.609c-0.126-2.523,0.07-5.064-0.071-7.588c-0.076-1.349-0.563-2.675-0.857-4.014
			c-0.101-0.474-0.176-0.95-0.305-1.625c2.065,0.13,2.171-1.146,2.135-2.555c-0.136-5.154-0.313-10.306-0.344-15.459
			c-0.003-0.945,0.801-1.879,0.856-2.839c0.099-1.605,1.431-1.068,2.168-1.557c1.189-0.793,2.601-1.456,2.368-3.363
			C153.459,72.154,153.664,70.894,153.554,69.667z M94.098,76.311c-0.634-0.104-1.169-0.192-1.526-0.25c0-4.764,0-9.379,0-13.885
			c0.853-0.452,1.526-0.811,2.451-1.304C94.713,66.024,94.408,71.1,94.098,76.311z M97.216,112.07
			c-1.326-0.736-1.61-2.074-1.619-3.483c-0.001-0.936,0-1.872,0-2.687c2.346,0,4.413-0.042,6.478,0.038
			c0.353,0.015,0.917,0.495,0.997,0.845c0.477,2.124,0.838,4.271,1.278,6.617C101.758,113.474,99.386,113.276,97.216,112.07z
			 M146.773,106.466c0.82,3.741-0.654,5.908-4.471,6.59c-1.305,0.232-2.635,0.314-4.267,0.5c0.462-2.439,0.774-4.49,1.272-6.498
			c0.114-0.466,0.8-1.059,1.278-1.112c1.726-0.198,3.478-0.235,5.218-0.226C146.14,105.722,146.703,106.149,146.773,106.466z
			 M145.945,89.375c0.276-0.15,0.794-0.438,1.688-0.931c-1.275,3.154-2.338,6.008-3.616,8.768c-0.289,0.631-1.265,1.057-2.016,1.337
			c-1.426,0.531-2.304,1.478-2.878,2.851c-1.445,3.465-2.905,6.928-4.433,10.356c-0.902,2.02-2.688,2.854-4.774,2.876
			c-5.79,0.062-11.586,0.068-17.372-0.001c-2.834-0.035-4.569-1.46-4.829-3.661c-0.894-2.026-1.791-4.053-2.689-6.082
			c-0.55-1.063-1.222-2.085-1.625-3.204c-0.579-1.599-1.547-2.622-3.17-3.206c-0.773-0.277-1.686-0.889-2.007-1.593
			c-1.204-2.637-2.192-5.372-3.376-8.361c0.767,0.405,1.276,0.673,1.628,0.86c0-3.336,0.004-6.712-0.008-10.092
			c0-0.209-0.059-0.496-0.2-0.614c-1.973-1.678-1.646-3.897-1.494-6.094c0.175-2.579,0.279-5.164,0.467-7.742
			c0.068-0.933,0.288-1.857,0.392-2.49c17.085,0.229,33.965,0.272,51.092-0.036c0.038,0.147,0.229,0.605,0.262,1.075
			c0.286,3.923,0.599,7.844,0.771,11.771c0.034,0.837-0.23,1.947-0.786,2.49c-1.042,1.02-1.04,2.142-1.034,3.387
			C145.961,83.829,145.945,86.622,145.945,89.375z M149.864,76.177c-0.352,0.07-0.886,0.171-1.538,0.296
			c-0.3-5.194-0.598-10.292-0.899-15.529c0.857,0.543,1.496,0.946,2.438,1.544C149.864,66.783,149.864,71.359,149.864,76.177z"/>
		<circle fill-rule="evenodd" clip-rule="evenodd" fill="#12232D" cx="102.304" cy="111.492" r="1.229"/>
		<circle fill-rule="evenodd" clip-rule="evenodd" fill="#12232D" cx="101.347" cy="107.639" r="1.229"/>
		<circle fill-rule="evenodd" clip-rule="evenodd" fill="#12232D" cx="140.297" cy="111.492" r="1.229"/>
		<circle fill-rule="evenodd" clip-rule="evenodd" fill="#12232D" cx="141.254" cy="107.639" r="1.229"/>
	</g>
</g>
</svg>
