<?xml version="1.0" encoding="utf-8"?>
<!-- Generator: Adobe Illustrator 16.0.0, SVG Export Plug-In . SVG Version: 6.00 Build 0)  -->
<!DOCTYPE svg PUBLIC "-//W3C//DTD SVG 1.1//EN" "http://www.w3.org/Graphics/SVG/1.1/DTD/svg11.dtd">
<svg version="1.1" id="Layer_1" xmlns="http://www.w3.org/2000/svg" xmlns:xlink="http://www.w3.org/1999/xlink" x="0px" y="0px"
	 width="300px" height="300px" viewBox="0 0 300 300" enable-background="new 0 0 300 300" xml:space="preserve">
<g>
	<path fill="#44B549" d="M32.749,80.3V59.362c0-4.625,3.75-8.375,8.375-8.375h217.75c4.626,0,8.375,3.75,8.375,8.375V80.3
		c0,4.625-3.749,8.375-8.375,8.375H41.124C36.499,88.675,32.749,84.925,32.749,80.3z M32.749,164.05v-20.938
		c0-4.625,3.75-8.375,8.375-8.375h217.75c4.626,0,8.375,3.75,8.375,8.375v20.938c0,4.626-3.749,8.375-8.375,8.375H41.124
		C36.499,172.425,32.749,168.676,32.749,164.05z M32.749,247.8v-20.938c0-4.626,3.75-8.375,8.375-8.375h217.75
		c4.626,0,8.375,3.749,8.375,8.375V247.8c0,4.626-3.749,8.375-8.375,8.375H41.124C36.499,256.175,32.749,252.426,32.749,247.8z"/>
</g>
</svg>
