<?xml version="1.0" encoding="utf-8"?>
<!-- Generator: Adobe Illustrator 16.0.0, SVG Export Plug-In . SVG Version: 6.00 Build 0)  -->
<!DOCTYPE svg PUBLIC "-//W3C//DTD SVG 1.1//EN" "http://www.w3.org/Graphics/SVG/1.1/DTD/svg11.dtd">
<svg version="1.1" id="Layer_1" xmlns="http://www.w3.org/2000/svg" xmlns:xlink="http://www.w3.org/1999/xlink" x="0px" y="0px"
	 width="300px" height="300px" viewBox="0 0 300 300" enable-background="new 0 0 300 300" xml:space="preserve">
<g>
	<path fill="#44B549" d="M283.457,76.232v144.526c0,12.28-9.955,22.235-22.234,22.235H42.579c-14.326,0-25.94-11.614-25.94-25.94
		V91.056c0-6.14,4.978-11.117,11.117-11.117h18.529v-3.706c0-6.14,4.978-11.117,11.117-11.117H272.34
		C278.479,65.115,283.457,70.093,283.457,76.232z M46.285,217.054v-114.88h-7.412v114.88c0,2.045,1.66,3.705,3.706,3.705
		C44.625,220.759,46.285,219.099,46.285,217.054z M253.811,118.85V100.32c0-3.07-2.489-5.559-5.559-5.559H81.49
		c-3.07,0-5.559,2.489-5.559,5.559v18.529c0,3.07,2.489,5.559,5.559,5.559h166.762C251.321,124.408,253.811,121.919,253.811,118.85z
		 M157.459,163.319v-3.706c0-3.069-2.488-5.559-5.559-5.559H81.49c-3.07,0-5.559,2.489-5.559,5.559v3.706
		c0,3.069,2.489,5.559,5.559,5.559h70.41C154.971,168.878,157.459,166.389,157.459,163.319z M157.459,207.789v-3.706
		c0-3.069-2.488-5.559-5.559-5.559H81.49c-3.07,0-5.559,2.489-5.559,5.559v3.706c0,3.069,2.489,5.559,5.559,5.559h70.41
		C154.971,213.348,157.459,210.858,157.459,207.789z M253.811,163.319v-3.706c0-3.069-2.489-5.559-5.559-5.559h-70.41
		c-3.07,0-5.559,2.489-5.559,5.559v3.706c0,3.069,2.488,5.559,5.559,5.559h70.41C251.321,168.878,253.811,166.389,253.811,163.319z
		 M253.811,207.789v-3.706c0-3.069-2.489-5.559-5.559-5.559h-70.41c-3.07,0-5.559,2.489-5.559,5.559v3.706
		c0,3.069,2.488,5.559,5.559,5.559h70.41C251.321,213.348,253.811,210.858,253.811,207.789z"/>
</g>
</svg>
