<?xml version="1.0" encoding="utf-8"?>
<!-- Generator: Adobe Illustrator 16.0.0, SVG Export Plug-In . SVG Version: 6.00 Build 0)  -->
<!DOCTYPE svg PUBLIC "-//W3C//DTD SVG 1.1//EN" "http://www.w3.org/Graphics/SVG/1.1/DTD/svg11.dtd">
<svg version="1.1" id="Layer_1" xmlns="http://www.w3.org/2000/svg" xmlns:xlink="http://www.w3.org/1999/xlink" x="0px" y="0px"
	 width="300px" height="300px" viewBox="0 0 300 300" enable-background="new 0 0 300 300" xml:space="preserve">
<g>
	<path fill-rule="evenodd" clip-rule="evenodd" fill="#44B549" d="M105.705,243.986c-2.943-6.667-5.894-13.338-8.85-20.01
		l-0.135,0.097c2.959,6.671,5.925,13.337,8.881,20.004L105.705,243.986z"/>
	<path fill-rule="evenodd" clip-rule="evenodd" fill="#44B549" d="M105.602,244.077c-2.956-6.667-5.922-13.333-8.881-20.004
		c-1.974-5.469-3.535-11.131-6.003-16.369c-2.661-5.619-6.295-10.777-9.255-16.272c-2.792-5.18-5.983-10.308-7.686-15.857
		c-1.928-6.248-2.725-12.902-3.387-19.438c-0.527-5.238-0.112-10.565-0.112-16.045c1.188,0.125,1.809,0.026,2.22,0.27
		c12.327,7.118,25.855,6.614,39.41,6.539c30.154-0.167,60.328,0.354,90.477-0.308c8.972-0.193,17.866-3.414,27.448-5.383
		c-0.861,12.305,2.834,25.907-5.54,38.468c-3.638,5.451-4.948,12.449-8.548,17.938c-9.492,14.46-14.814,30.803-21.967,46.316
		c-3.06,6.653-7.97,10.088-15.103,10.136c-19.068,0.119-38.124-0.013-57.179,0.071C113.957,254.181,109.612,249.46,105.602,244.077z
		 M93.472,179.992c1.661,7.358,3.512,9.331,11.726,9.479c26.588,0.482,53.182,0.602,79.763,0.688
		c4.769,0.02,9.569-0.649,14.318-1.249c5.021-0.627,6.652-4.285,7.706-8.918C168.913,179.992,131.374,179.992,93.472,179.992z
		 M100.413,193.39c2.992,6.078,10.504,11.34,16.986,11.358c21.803,0.058,43.608,0.02,65.427,0.025
		c8.394,0,12.642-6.051,17.873-11.384C166.727,193.39,133.475,193.39,100.413,193.39z M187.64,220.571c-25.321,0-50.112,0-75.058,0
		c0.983,6.539,4.351,9.119,10.34,9.081c18.136-0.129,36.272-0.129,54.402,0C183.321,229.69,186.683,227.095,187.64,220.571z
		 M179.517,241.24c-19.808,0-39.184,0-58.6,0c0.662,7.493,3.657,10.54,10.309,10.578c12.529,0.064,25.057,0.058,37.602,0
		C175.532,251.786,178.36,249.061,179.517,241.24z"/>
	<path fill-rule="evenodd" clip-rule="evenodd" fill="#44B549" d="M256.535,108.082c-0.237-2.583-1.42-5.077-2.371-8.297
		c4.922-5.116,4.132-7.583-1.678-15.296c-2.372-3.133-4.493-3.162-7.43-3.952c-4.164-1.109-7.963-2.912-8.753-8.432
		c-0.579-4.055-3.104-7.796-4.294-11.813c-1.42-4.769-2.3-9.695-3.488-14.531c-2.282-9.286-8.259-15.469-16.563-19.708
		c-1.145-0.582-3.047-1.019-3.245-1.857c-1.453-5.884-6.196-4.855-10.143-4.855c-33.843-0.013-67.686,0.09-101.542,0.347
		c-1.479,0.006-3.008,1.748-4.409,2.821c-1.253,0.945-2.201,2.419-3.567,3.065c-11.214,5.261-16.742,14.396-18.988,26.267
		c-0.868,4.604-0.273,9.968-4.972,13.49c-1.108,0.829-0.938,3.455-1.208,5.276c-0.829,5.576-4.428,9.246-9.82,9.333
		c-5.919,0.093-12.725,10.058-11.27,15.778c0.428,1.696,2.304,3.023,3.069,3.965c-0.742,2.956-1.877,6.002-2.208,9.139
		c-0.401,3.644-0.106,7.384-0.093,11.086c0.014,5.189,3.606,10.264,8.786,11.27c3.927,0.761,4.634,2.844,6.395,6.276
		c5.084,9.862,1.896,19.827,2.385,29.628c0.488,10.07-0.727,20.212-0.958,30.328c-0.132,5.852,0.514,6.414,6.414,8.059
		c0.065,0.971,0.617,2.333,0.151,3.06c-5.646,8.836-2.888,18.676-3.499,28.098c-0.363,5.512-1.331,11.105-0.717,16.51
		c0.678,5.878-0.443,12.867,6.424,16.607c0.791,0.435,1.111,2.153,1.233,3.323c0.296,2.688,0.361,5.411,0.489,7.663h25.681
		c0.142-1.215,0.238-2.134,0.321-3.059c0.746-8.51,1.819-9.652,10.341-9.708h31.331c0.013,0.01,0.026,0.02,0.039,0.028
		c0.02-0.009,0.029-0.019,0.042-0.028h11.533c0.051,0.042,0.097,0.081,0.154,0.119c0.058-0.038,0.1-0.077,0.148-0.119h43.889
		c8.881,0.189,9.209,1.633,9.505,12.767h26.035c0.108-2.547,0.205-4.896,0.365-7.22c0.077-1.083-0.025-2.726,0.604-3.156
		c8.136-5.536,6.896-13.621,6.497-21.748c-0.417-8.303,0.231-16.665-0.237-24.968c-0.251-4.438-1.852-8.802-2.821-13.207
		c-0.328-1.56-0.578-3.123-1.003-5.348c6.8,0.431,7.146-3.766,7.025-8.405c-0.444-16.961-1.028-33.914-1.132-50.869
		c-0.006-3.112,2.635-6.186,2.821-9.345c0.321-5.283,4.705-3.516,7.134-5.123c3.914-2.609,8.555-4.791,7.789-11.067
		C256.227,116.263,256.901,112.118,256.535,108.082z M60.897,129.946c-2.089-0.34-3.85-0.633-5.026-0.826
		c0-15.675,0-30.865,0-45.691c2.809-1.484,5.026-2.667,8.066-4.29C62.922,96.096,61.916,112.799,60.897,129.946z M71.158,247.612
		c-4.36-2.42-5.299-6.822-5.324-11.463c-0.006-3.078,0-6.157,0-8.836c7.718,0,14.518-0.139,21.314,0.121
		c1.16,0.051,3.017,1.626,3.28,2.78c1.569,6.989,2.757,14.052,4.204,21.773C86.104,252.229,78.298,251.581,71.158,247.612z
		 M234.228,229.171c2.699,12.313-2.152,19.44-14.711,21.684c-4.293,0.765-8.669,1.034-14.042,1.646
		c1.522-8.027,2.552-14.775,4.19-21.383c0.372-1.529,2.628-3.483,4.202-3.657c5.683-0.655,11.446-0.773,17.173-0.745
		C232.139,226.722,233.996,228.129,234.228,229.171z M231.503,172.93c0.906-0.492,2.608-1.439,5.553-3.063
		c-4.197,10.376-7.693,19.771-11.903,28.85c-0.951,2.079-4.157,3.477-6.632,4.399c-4.691,1.747-7.577,4.862-9.467,9.38
		c-4.755,11.4-9.563,22.796-14.589,34.077c-2.97,6.646-8.844,9.393-15.707,9.465c-19.056,0.202-38.123,0.222-57.166-0.004
		c-9.325-0.116-15.033-4.808-15.887-12.048c-2.943-6.667-5.894-13.338-8.85-20.01c-1.813-3.502-4.023-6.863-5.347-10.542
		c-1.909-5.262-5.093-8.629-10.431-10.55c-2.545-0.913-5.546-2.924-6.607-5.238c-3.959-8.676-7.21-17.677-11.108-27.513
		c2.522,1.33,4.2,2.214,5.356,2.827c0-10.977,0.013-22.089-0.025-33.208c0-0.688-0.193-1.632-0.656-2.025
		c-6.491-5.52-5.418-12.821-4.917-20.051c0.578-8.483,0.919-16.989,1.536-25.476c0.225-3.069,0.951-6.109,1.292-8.194
		c56.215,0.758,111.762,0.896,168.117-0.116c0.123,0.482,0.752,1.992,0.862,3.538c0.938,12.909,1.966,25.814,2.532,38.734
		c0.115,2.754-0.759,6.405-2.584,8.191c-3.432,3.354-3.426,7.05-3.406,11.147C231.555,154.684,231.503,163.873,231.503,172.93z
		 M244.395,129.503c-1.156,0.231-2.91,0.565-5.057,0.977c-0.991-17.095-1.968-33.866-2.964-51.1c2.821,1.787,4.923,3.11,8.021,5.081
		C244.395,98.59,244.395,113.647,244.395,129.503z"/>
	<path fill-rule="evenodd" clip-rule="evenodd" fill="#44B549" d="M91.945,245.71c0,2.229-1.813,4.045-4.042,4.045
		c-2.24,0-4.049-1.815-4.049-4.045c0-2.237,1.809-4.046,4.049-4.046C90.133,241.664,91.945,243.473,91.945,245.71z"/>
	<path fill-rule="evenodd" clip-rule="evenodd" fill="#44B549" d="M88.793,233.032c0,2.229-1.809,4.043-4.042,4.043
		s-4.042-1.813-4.042-4.043c0-2.233,1.809-4.042,4.042-4.042S88.793,230.799,88.793,233.032z"/>
	<path fill-rule="evenodd" clip-rule="evenodd" fill="#44B549" d="M208.874,245.71c0,2.229,1.806,4.045,4.042,4.045
		c2.237,0,4.043-1.815,4.043-4.045c0-2.237-1.806-4.046-4.043-4.046C210.68,241.664,208.874,243.473,208.874,245.71z"/>
	<path fill-rule="evenodd" clip-rule="evenodd" fill="#44B549" d="M212.023,233.032c0,2.229,1.806,4.043,4.042,4.043
		c2.23,0,4.043-1.813,4.043-4.043c0-2.233-1.813-4.042-4.043-4.042C213.829,228.99,212.023,230.799,212.023,233.032z"/>
</g>
</svg>
