<?xml version="1.0" encoding="iso-8859-1"?>
<!-- Generator: Adobe Illustrator 19.0.0, SVG Export Plug-In . SVG Version: 6.00 Build 0)  -->
<svg xmlns="http://www.w3.org/2000/svg" xmlns:xlink="http://www.w3.org/1999/xlink" version="1.1" id="Capa_1" x="0px" y="0px" viewBox="0 0 512 512" style="enable-background:new 0 0 512 512;" xml:space="preserve">
<g>
	<g>
		<g>
			<path d="M256,0C114.615,0,0,114.615,0,256s114.615,256,256,256s256-114.615,256-256S397.385,0,256,0z M256,480     C132.288,480,32,379.712,32,256S132.288,32,256,32s224,100.288,224,224S379.712,480,256,480z"/>
			<path d="M336,224c35.346,0,64-28.654,64-64h-32c0,17.673-14.327,32-32,32c-17.673,0-32-14.327-32-32h-32     C272,195.346,300.654,224,336,224z"/>
			<path d="M176,224c35.346,0,64-28.654,64-64h-32c0,17.673-14.327,32-32,32s-32-14.327-32-32h-32C112,195.346,140.654,224,176,224z     "/>
			<path d="M397.28,247.2c-2.818-4.182-7.443-6.791-12.48-7.04c-5.037-0.255-9.899,1.88-13.12,5.76c-8.8,10.56-51.68,64-35.52,98.88     c4.96,10.72,17.44,23.36,48,23.36c16.015,1.752,31.562-6.084,39.68-20C440.96,315.52,404.8,258.24,397.28,247.2z M395.36,332.8     v0.16c-1.6,2.88-9.12,3.2-11.36,3.2c-12.16,0-17.76-2.72-18.88-4.96c-3.52-7.36,5.12-27.04,17.44-45.92     C392.64,304.96,400,325.6,395.36,332.8z"/>
			<path d="M128,352h32c0-17.673,14.327-32,32-32h112v-32H192C156.654,288,128,316.654,128,352z"/>
		</g>
	</g>
</g>
<g>
</g>
<g>
</g>
<g>
</g>
<g>
</g>
<g>
</g>
<g>
</g>
<g>
</g>
<g>
</g>
<g>
</g>
<g>
</g>
<g>
</g>
<g>
</g>
<g>
</g>
<g>
</g>
<g>
</g>
</svg>
